<?xml version="1.0" encoding="UTF-8" standalone="no"?>
<!-- Created with Inkscape (http://www.inkscape.org/) -->

<svg
   version="1.1"
   id="svg1"
   width="491.51999"
   height="424.88"
   viewBox="0 0 491.51999 424.88"
   xmlns="http://www.w3.org/2000/svg"
   xmlns:svg="http://www.w3.org/2000/svg">
  <defs
     id="defs1" />
  <g
     id="g1">
    <path
       id="path1"
       d="m 1015.5,2712.61 h 1850.57 c 102.23,0 199.47,-45.52 271.7,-126.4 68.42,-76.6 108.73,-178.69 112.58,-287.03 L 3085.45,311.953 H 217.441 L 0.839844,305.078 V 2281.98 c 0,11.1 0.437496,22.2 1.210936,33.27 0.3125,4.46 0.71485,8.92 1.17188,13.38 -0.44532,4.04 -0.82032,8.09 -1.13672,12.15 -0.82422,10.72 -1.246096,21.47 -1.246096,32.22 v 438.46 c 0,99.71 35.398456,194.59 98.320356,265.05 62.9178,70.45 147.6598,110.1 236.7068,110.1 h 344.602 c 89.043,0 173.785,-39.65 236.703,-110.1 62.922,-70.46 98.328,-165.34 98.328,-265.05 v -98.85"
       style="fill:#e8b826;fill-opacity:1;fill-rule:evenodd;stroke:none"
       transform="matrix(0.13333333,0,0,-0.13333333,0,424.88)" />
    <path
       id="path2"
       d="M 820.797,2331.89 H 2865.6 c 84.48,0 153.6,-69.11 153.6,-153.59 v -820.81 c 0,-84.48 -69.12,-153.59 -153.6,-153.59 H 820.797 c -84.484,0 -153.602,69.11 -153.602,153.59 v 820.81 c 0,84.48 69.118,153.59 153.602,153.59"
       style="fill:#f5f5f5;fill-opacity:1;fill-rule:evenodd;stroke:none"
       transform="matrix(0.13333333,0,0,-0.13333333,0,424.88)" />
    <path
       id="path3"
       d="m 3375.79,2094.69 c 29.74,0 59.4,-3.72 88.15,-11.42 65.13,-17.45 121.94,-54.75 162.37,-108.79 40.11,-53.6 60.09,-118.13 60.09,-184.89 0,-31.6 -4.51,-63.06 -12.69,-93.57 L 3307.05,327.57 C 3282.48,235.891 3224.53,154.309 3150.35,95.8125 3076.23,37.3438 2983.32,0 2888.23,0 H 310.609 C 280.855,0 251.195,3.71094 222.445,11.418 157.313,28.8672 100.504,66.1641 60.0742,120.207 19.9727,173.809 0,238.332 0,305.078 c 0,31.613 4.50391,63.078 12.6758,93.586 L 379.355,1767.11 c 24.567,91.69 82.516,173.28 156.684,231.77 74.125,58.46 167.035,95.81 262.129,95.81 H 3375.79"
       style="fill:#ffca28;fill-opacity:1;fill-rule:evenodd;stroke:none"
       transform="matrix(0.13333333,0,0,-0.13333333,0,424.88)" />
  </g>
</svg>
